<?xml version="1.0" standalone="no"?>
<!DOCTYPE svg PUBLIC "-//W3C//DTD SVG 20010904//EN"
 "http://www.w3.org/TR/2001/REC-SVG-20010904/DTD/svg10.dtd">
<svg version="1.0" xmlns="http://www.w3.org/2000/svg"
 width="1024.000000pt" height="1024.000000pt" viewBox="0 0 1024.000000 1024.000000"
 preserveAspectRatio="xMidYMid meet">

<g transform="translate(0.000000,1024.000000) scale(0.100000,-0.100000)"
fill="#000000" stroke="none">
<path d="M5193 8546 c-34 -29 -83 -117 -83 -151 0 -11 -15 -52 -34 -92 -19
-39 -40 -97 -46 -129 -7 -33 -23 -77 -36 -100 -13 -22 -31 -72 -40 -110 -9
-38 -29 -91 -44 -119 -16 -27 -33 -77 -40 -110 -7 -33 -25 -85 -40 -116 -16
-30 -32 -72 -35 -92 -8 -40 -39 -87 -58 -87 -7 0 -43 -13 -82 -28 -38 -16
-101 -36 -140 -46 -38 -9 -87 -28 -107 -42 -21 -13 -43 -24 -50 -24 -20 -1
-101 -39 -123 -59 -11 -10 -39 -25 -62 -33 -47 -18 -108 -54 -186 -110 -64
-47 -95 -48 -144 -5 -21 18 -83 63 -138 100 -55 37 -111 74 -125 84 -14 9 -38
29 -55 44 -16 15 -50 37 -75 49 -25 12 -54 31 -66 41 -48 44 -140 92 -187 97
-47 5 -50 3 -98 -44 -44 -43 -49 -53 -49 -93 0 -28 8 -59 24 -85 13 -23 29
-59 36 -81 7 -22 26 -58 42 -80 15 -22 33 -58 39 -80 6 -22 23 -60 39 -85 16
-25 33 -63 39 -85 6 -22 24 -58 40 -80 16 -22 34 -59 40 -83 7 -23 23 -64 36
-89 31 -58 31 -84 1 -120 -13 -15 -30 -42 -39 -58 -8 -17 -24 -39 -36 -49 -11
-10 -30 -44 -42 -75 -11 -31 -29 -65 -40 -76 -10 -12 -27 -45 -37 -75 -11 -30
-31 -72 -45 -92 -14 -21 -30 -61 -37 -90 -7 -29 -23 -80 -36 -113 -13 -33 -28
-82 -34 -110 -6 -27 -16 -55 -22 -63 -20 -23 -141 -80 -209 -97 -35 -9 -79
-26 -96 -37 -18 -10 -69 -28 -113 -39 -44 -10 -97 -30 -117 -43 -21 -13 -65
-30 -97 -36 -33 -7 -85 -25 -115 -40 -31 -15 -81 -33 -111 -40 -30 -7 -77 -24
-105 -38 -27 -14 -79 -33 -115 -42 -42 -11 -84 -31 -115 -55 -60 -45 -65 -52
-65 -90 0 -50 32 -91 87 -109 26 -10 71 -28 98 -42 28 -13 82 -31 120 -41 39
-9 93 -29 120 -44 28 -15 75 -32 105 -39 30 -7 82 -25 115 -40 33 -15 85 -33
115 -40 30 -7 80 -25 110 -41 30 -16 82 -34 115 -42 33 -8 83 -26 112 -40 28
-15 70 -29 93 -33 23 -4 50 -14 60 -23 19 -17 79 -162 101 -245 7 -27 23 -60
36 -74 17 -19 22 -32 17 -47 -13 -34 -17 -265 -5 -265 6 0 11 9 11 21 0 55 58
81 92 42 36 -42 97 -174 94 -204 -3 -26 0 -31 26 -36 51 -10 57 -66 15 -126
-11 -16 -28 -56 -39 -90 -10 -34 -32 -82 -48 -108 -17 -25 -35 -61 -42 -80 -6
-19 -24 -56 -39 -84 -15 -27 -32 -68 -39 -90 -7 -22 -25 -58 -40 -80 -15 -22
-31 -51 -35 -65 -4 -14 -21 -52 -37 -84 -48 -95 -29 -169 56 -213 50 -26 207
11 222 52 4 9 21 23 38 32 17 8 42 25 56 38 14 12 45 34 70 49 25 15 72 47
105 72 33 24 80 57 105 73 25 16 56 38 70 49 14 10 41 27 60 37 19 10 50 31
67 46 33 29 52 29 83 3 8 -7 38 -23 66 -36 28 -13 66 -36 83 -51 18 -14 55
-33 82 -41 28 -9 63 -26 79 -40 16 -13 53 -29 82 -36 29 -7 76 -25 103 -41 28
-15 79 -33 115 -38 102 -17 145 -60 174 -177 9 -36 28 -87 41 -113 13 -26 31
-76 40 -111 9 -35 27 -84 40 -109 12 -25 30 -74 39 -108 8 -35 26 -84 39 -110
13 -27 32 -79 41 -116 9 -38 27 -85 40 -105 14 -20 30 -64 36 -97 18 -90 85
-222 123 -246 35 -21 78 -25 107 -9 32 17 89 124 109 204 10 41 28 91 40 109
12 19 30 68 40 110 10 42 28 91 39 109 11 18 28 65 38 103 9 39 27 88 40 111
13 22 31 72 40 110 9 38 28 92 42 119 14 28 31 77 39 110 8 33 32 90 54 127
42 71 48 75 154 93 22 4 63 18 90 32 28 14 79 34 115 45 36 11 74 28 85 38 11
9 43 25 70 35 28 10 66 30 85 44 19 14 52 34 74 44 21 9 53 29 71 45 18 15 45
35 61 44 16 10 37 23 46 30 28 21 164 -52 276 -148 21 -17 60 -43 88 -57 27
-14 56 -33 64 -42 7 -9 27 -23 44 -32 17 -8 42 -26 56 -38 38 -36 121 -94 157
-110 38 -18 122 -20 157 -4 37 17 76 82 76 126 0 21 -9 53 -21 72 -11 18 -29
56 -40 84 -11 28 -29 63 -40 78 -11 16 -29 54 -40 86 -11 32 -30 74 -42 93
-13 19 -31 57 -42 84 -10 27 -30 70 -46 95 -15 25 -33 71 -39 101 -7 30 -19
63 -27 72 -8 9 -17 34 -20 55 -4 32 3 53 39 123 24 46 49 85 55 87 20 7 36
-38 36 -106 0 -60 -3 -67 -30 -91 -53 -45 -50 -58 15 -66 31 -4 90 -2 131 3
59 9 80 8 107 -3 38 -16 160 -19 198 -4 31 11 33 33 6 67 -18 23 -20 41 -20
185 0 88 4 168 10 178 12 23 92 70 120 70 29 0 76 -26 85 -47 5 -10 10 -91 13
-181 l4 -162 -36 -33 c-66 -61 -42 -87 81 -87 43 0 93 4 112 10 25 7 42 5 68
-5 49 -21 191 -20 221 1 29 20 28 49 -3 76 -20 17 -25 31 -25 69 0 76 38 89
94 30 22 -23 29 -43 36 -97 6 -46 14 -72 26 -81 22 -16 186 -18 215 -3 32 18
25 65 -14 89 -19 11 -39 31 -45 45 -6 13 -27 45 -46 71 -20 26 -36 53 -36 60
0 8 -13 30 -30 48 -16 19 -30 41 -30 48 0 16 95 118 124 135 24 13 26 68 3 91
-21 21 -105 28 -137 11 -14 -8 -31 -27 -39 -43 -7 -17 -29 -54 -48 -82 -33
-51 -59 -67 -68 -40 -2 6 -6 109 -8 227 -3 123 -9 227 -16 243 -13 34 -35 43
-64 28 -141 -74 -149 -86 -96 -144 l31 -34 -1 -314 -1 -313 -27 -28 c-32 -33
-64 -36 -103 -8 l-28 20 -4 182 c-6 236 -12 254 -93 285 -68 27 -113 29 -141
8 -31 -24 -87 -19 -114 10 -31 32 -63 32 -99 -2 -39 -38 -44 -63 -25 -109 14
-32 17 -69 16 -204 -2 -183 0 -177 -80 -215 -32 -16 -35 -15 -76 9 l-43 25 -8
198 c-8 216 -3 278 27 336 11 22 26 78 34 125 23 130 60 175 168 201 27 7 63
22 79 33 16 12 65 29 109 40 44 10 99 29 121 42 23 13 69 30 102 36 33 7 82
25 110 40 27 15 75 33 105 40 30 7 81 26 112 41 32 16 63 29 71 29 67 0 211
88 223 136 3 12 -1 35 -10 52 -17 32 -71 82 -89 82 -7 0 -41 14 -76 30 -35 17
-94 38 -130 46 -36 9 -84 27 -106 39 -22 12 -71 30 -110 40 -38 10 -96 31
-127 47 -32 15 -81 33 -110 39 -29 7 -82 25 -116 41 -35 16 -87 33 -115 39
-47 10 -140 62 -166 93 -6 7 -17 47 -25 90 -9 42 -26 102 -40 134 -14 31 -30
77 -36 102 -7 25 -25 65 -41 90 -15 25 -35 64 -42 86 -8 21 -29 61 -46 89 -17
27 -31 54 -31 59 0 6 -14 31 -30 55 -20 29 -28 52 -25 65 10 35 54 134 136
301 43 88 81 175 84 193 4 18 18 46 31 62 14 16 33 54 44 85 11 31 28 68 40
82 23 30 28 109 8 136 -31 40 -91 77 -127 77 -42 0 -147 -48 -176 -80 -11 -12
-40 -33 -65 -47 -55 -30 -135 -83 -175 -118 -40 -33 -120 -88 -170 -116 -22
-12 -53 -33 -69 -46 -16 -13 -34 -22 -41 -19 -7 2 -48 31 -91 64 -44 32 -97
68 -119 80 -22 11 -55 32 -74 46 -19 14 -50 31 -70 37 -20 6 -51 22 -69 36
-17 13 -57 33 -88 43 -31 11 -70 28 -88 39 -17 11 -60 27 -95 36 -35 9 -91 27
-125 40 -33 13 -87 31 -120 40 -78 22 -99 45 -121 135 -10 41 -30 100 -45 130
-15 30 -33 80 -40 110 -7 30 -23 76 -36 102 -13 25 -32 79 -43 120 -11 40 -31
94 -44 118 -14 25 -30 70 -37 100 -7 30 -25 80 -40 110 -15 30 -33 79 -40 108
-14 61 -38 82 -103 89 -36 4 -48 1 -74 -21z m-240 -2202 c52 -18 59 -26 76
-99 7 -27 23 -68 36 -91 13 -23 31 -74 40 -115 9 -41 28 -91 41 -111 13 -20
30 -69 39 -109 15 -72 36 -109 63 -109 29 0 92 44 105 74 8 17 18 51 21 76 4
25 20 71 37 102 16 32 35 87 43 122 7 35 22 79 34 98 11 18 30 59 42 91 12 31
30 62 41 68 41 22 139 -3 169 -43 9 -12 78 -38 100 -38 11 0 23 -7 26 -15 4
-8 10 -15 15 -15 4 0 20 -11 35 -25 15 -14 31 -25 37 -25 5 0 54 -46 109 -102
l100 -101 -10 -85 c-15 -131 -4 -148 110 -171 31 -7 61 -18 67 -25 6 -7 13
-48 16 -91 4 -44 11 -88 17 -98 15 -29 0 -93 -26 -111 -13 -8 -48 -22 -79 -31
-31 -9 -67 -25 -81 -36 -14 -11 -57 -27 -95 -35 -39 -8 -103 -30 -143 -50 -40
-20 -80 -40 -88 -44 -9 -4 -15 -21 -15 -40 0 -19 6 -36 15 -40 8 -4 48 -24 88
-44 40 -20 104 -42 143 -50 38 -8 82 -24 98 -35 15 -11 53 -30 84 -41 32 -12
62 -30 67 -41 17 -30 6 -87 -22 -117 -26 -28 -42 -65 -53 -119 -4 -22 -17 -39
-40 -53 -45 -28 -93 -84 -101 -118 -8 -32 -32 -62 -50 -62 -32 0 -147 -76
-198 -131 -31 -33 -61 -57 -68 -54 -7 3 -26 25 -41 50 -17 26 -39 48 -53 51
-42 11 -154 -1 -165 -17 -22 -34 -21 -60 5 -99 32 -49 33 -70 2 -99 -20 -18
-28 -21 -44 -12 -35 19 -60 59 -88 144 -40 122 -70 177 -125 226 -43 39 -52
43 -64 30 -8 -8 -19 -36 -24 -61 -5 -30 -20 -61 -41 -84 -30 -35 -32 -40 -25
-88 12 -79 8 -99 -25 -128 -25 -23 -39 -28 -84 -28 -66 0 -106 30 -107 82 0
18 -4 42 -9 53 -6 17 -9 13 -15 -20 -11 -64 -15 -73 -33 -77 -10 -3 -31 5 -48
18 -35 28 -75 31 -97 6 -25 -27 -19 -314 7 -358 12 -21 17 -40 12 -57 -13 -52
-168 -59 -227 -10 -37 31 -37 47 1 75 l30 22 0 147 c0 91 -4 158 -12 173 -6
14 -31 35 -55 47 l-44 21 25 22 c36 31 46 65 35 117 -12 54 -22 65 -66 80 -47
15 -123 69 -123 87 0 7 -13 27 -30 44 -16 16 -30 34 -30 39 0 5 -4 9 -9 9 -5
0 -12 19 -16 43 -7 43 -28 84 -53 103 -21 16 -28 97 -9 112 37 31 193 102 243
111 30 6 76 22 102 35 26 14 68 34 95 45 42 18 47 23 47 51 0 28 -5 33 -47 51
-27 11 -69 31 -95 45 -26 13 -73 29 -105 35 -32 6 -77 21 -99 34 -23 14 -66
34 -96 45 -77 29 -92 48 -84 107 4 27 10 80 15 118 7 65 26 115 43 115 11 0
38 61 44 102 10 59 23 64 103 38 81 -26 137 -28 158 -7 25 24 17 120 -14 180
-10 19 -12 42 -7 72 6 40 11 48 58 76 28 17 65 44 81 59 17 15 46 30 66 34 19
3 55 21 79 39 39 28 103 52 151 56 8 0 37 -6 62 -15z m-658 -1987 c13 -27 32
-47 52 -57 40 -19 41 -24 4 -40 -53 -22 -62 -94 -25 -208 8 -23 14 -74 14
-112 0 -66 1 -70 31 -91 l32 -22 -23 -19 c-17 -14 -39 -18 -96 -18 -40 0 -76
5 -79 10 -4 6 5 24 19 41 26 30 26 32 26 204 0 189 -10 244 -56 298 -29 35
-23 51 24 63 43 12 50 8 77 -49z m-200 -39 c13 -12 -32 -47 -60 -48 -11 0 -31
7 -43 16 -21 14 -28 14 -84 0 -34 -8 -71 -25 -83 -36 -20 -19 -23 -19 -29 -5
-15 41 72 97 125 80 11 -4 25 -2 32 3 27 22 114 16 142 -10z m-282 -483 c7
-18 -9 -29 -30 -21 -12 5 -13 9 -3 21 16 19 26 19 33 0z"/>
<path d="M4917 4593 c-4 -3 -7 -11 -7 -17 0 -6 5 -5 12 2 6 6 9 14 7 17 -3 3
-9 2 -12 -2z"/>
<path d="M1925 4643 c-23 -6 -55 -32 -55 -45 0 -5 11 -26 25 -46 l25 -37 0
-316 0 -316 -25 -37 c-32 -48 -32 -62 5 -81 24 -12 78 -15 310 -15 358 0 347
-5 357 142 7 88 -2 108 -48 108 -23 0 -32 -7 -48 -38 -11 -21 -38 -55 -60 -75
-36 -33 -48 -37 -99 -39 -238 -7 -235 -9 -230 172 3 117 5 128 32 173 21 35
31 45 37 35 6 -9 9 -9 9 -1 0 7 -6 16 -14 20 -33 19 -61 97 -64 180 -4 72 -2
83 17 102 19 19 33 21 135 21 63 0 126 -4 139 -9 14 -5 49 -35 79 -65 30 -31
61 -56 70 -56 40 0 55 112 23 168 -34 57 -53 61 -340 60 -143 0 -269 -3 -280
-5z"/>
<path d="M2742 4518 c-5 -7 -17 -38 -26 -69 -8 -30 -25 -64 -36 -74 -26 -24
-26 -84 0 -127 17 -29 20 -51 20 -172 0 -172 14 -261 46 -293 20 -20 33 -23
102 -23 86 0 109 10 112 50 4 49 3 50 -65 50 -61 0 -66 2 -75 26 -16 42 -12
307 5 375 12 45 13 69 5 98 -5 21 -14 62 -20 91 -14 73 -41 101 -68 68z"/>
<path d="M2304 4315 c-42 -50 -50 -55 -82 -53 -24 2 -38 -2 -46 -15 -14 -22 5
-37 47 -37 21 0 41 -14 80 -55 41 -44 58 -55 83 -55 50 0 56 17 55 141 -1 62
-4 116 -7 120 -3 5 -23 9 -44 9 -34 0 -44 -6 -86 -55z"/>
<path d="M3150 3915 c0 -14 7 -28 15 -32 22 -8 27 0 19 31 -8 34 -34 34 -34 1z"/>
<path d="M3240 3820 c0 -5 7 -10 16 -10 8 0 12 5 9 10 -3 6 -10 10 -16 10 -5
0 -9 -4 -9 -10z"/>
</g>
</svg>
